<svg xmlns="http://www.w3.org/2000/svg" viewBox="0 0 300 300" role="img" aria-label="Up Mario thumbnail">
  <rect width="300" height="300" fill="#08020f"/>
  <rect x="34" width="232" height="300" fill="#130818"/>
  <path d="M48 0v300M104 0v300M160 0v300M216 0v300M252 0v300" stroke="#245b58" stroke-width="3" opacity=".45"/>
  <path d="M42 30l216 48M42 86l216-42M42 142l216 48M42 198l216-42M42 254l216 48" stroke="#40352a" stroke-width="3" opacity=".65"/>

  <g>
    <rect x="46" y="226" width="160" height="18" fill="#b34432"/>
    <rect x="46" y="226" width="160" height="4" fill="#f07b45"/>
    <rect x="46" y="240" width="160" height="4" fill="#71271f"/>
    <path d="M74 230v12M102 230v12M130 230v12M158 230v12M186 230v12" stroke="#71271f" stroke-width="2"/>
  </g>
  <g>
    <rect x="105" y="156" width="154" height="16" fill="#d23a3a"/>
    <rect x="105" y="156" width="154" height="4" fill="#ff7956"/>
    <rect x="105" y="168" width="154" height="4" fill="#731c2a"/>
    <path d="M122 169l20-11M151 169l20-11M180 169l20-11M209 169l20-11" stroke="#731c2a" stroke-width="3"/>
    <circle cx="119" cy="163" r="3" fill="#ffd447"/>
    <circle cx="153" cy="163" r="3" fill="#ffd447"/>
    <circle cx="187" cy="163" r="3" fill="#ffd447"/>
    <circle cx="221" cy="163" r="3" fill="#ffd447"/>
  </g>
  <g>
    <rect x="54" y="92" width="132" height="18" fill="#b34432"/>
    <rect x="54" y="92" width="132" height="4" fill="#f07b45"/>
    <rect x="54" y="106" width="132" height="4" fill="#71271f"/>
    <path d="M82 96v12M110 96v12M138 96v12M166 96v12" stroke="#71271f" stroke-width="2"/>
  </g>

  <g fill="#ffd447">
    <ellipse cx="208" cy="124" rx="8" ry="11"/>
    <rect x="207" y="117" width="2" height="14" fill="#fff0a8"/>
    <ellipse cx="233" cy="116" rx="8" ry="11"/>
    <rect x="232" y="109" width="2" height="14" fill="#fff0a8"/>
    <ellipse cx="77" cy="62" rx="8" ry="11"/>
    <rect x="76" y="55" width="2" height="14" fill="#fff0a8"/>
  </g>

  <g transform="translate(102 222)">
    <ellipse cx="0" cy="4" rx="18" ry="5" fill="rgba(0,0,0,.34)"/>
    <rect x="-11" y="-21" width="10" height="17" fill="#132d75"/>
    <rect x="1" y="-20" width="10" height="16" fill="#132d75"/>
    <rect x="-13" y="-32" width="26" height="19" fill="#285fd6"/>
    <rect x="-14" y="-41" width="28" height="15" fill="#e43a2f"/>
    <rect x="-11" y="-53" width="22" height="16" fill="#f1aa6b"/>
    <rect x="2" y="-43" width="13" height="4" fill="#7a3825"/>
    <rect x="3" y="-48" width="4" height="4" fill="#150b10"/>
    <rect x="-14" y="-61" width="25" height="9" fill="#e43a2f"/>
    <rect x="-18" y="-55" width="31" height="6" fill="#e43a2f"/>
    <rect x="-2" y="-57" width="8" height="6" fill="#fff8df"/>
    <rect x="-19" y="-32" width="7" height="16" fill="#f1aa6b"/>
    <rect x="12" y="-39" width="7" height="16" fill="#f1aa6b"/>
    <rect x="-11" y="-6" width="10" height="6" fill="#47271e"/>
    <rect x="2" y="-6" width="11" height="6" fill="#47271e"/>
  </g>

  <g transform="translate(218 149) rotate(-18)">
    <ellipse cx="2" cy="3" rx="13" ry="11" fill="#4a2416"/>
    <ellipse cx="0" cy="0" rx="13" ry="11" fill="#a46531"/>
    <path d="M-10-3L10 4M-10 5L10-4" stroke="#f2b15e" stroke-width="3"/>
  </g>

  <path d="M151 67l-10-13h20z" fill="#ffd447"/>
  <rect x="32" y="0" width="4" height="300" fill="#342029"/>
  <rect x="264" y="0" width="4" height="300" fill="#342029"/>
</svg>
