<svg xmlns="http://www.w3.org/2000/svg" viewBox="0 0 200 200" shape-rendering="crispEdges">
  <rect width="200" height="200" fill="#061016"/>
  <g stroke="#15313a" stroke-width="2">
    <path d="M0 36h200"/>
    <path d="M0 164h200"/>
  </g>
  <g fill="#7cf7c8">
    <rect x="86" y="172" width="28" height="6"/>
    <rect x="92" y="166" width="16" height="6"/>
    <rect x="97" y="158" width="6" height="8"/>
  </g>
  <g fill="#ff6b9d" transform="rotate(180 100 100)">
    <rect x="86" y="172" width="28" height="6"/>
    <rect x="92" y="166" width="16" height="6"/>
    <rect x="97" y="158" width="6" height="8"/>
  </g>
  <rect x="0" y="42" width="5" height="116" fill="#ffe66d" opacity=".45"/>
  <g fill="#020508">
    <rect x="-14" y="90" width="18" height="16"/>
    <rect x="5" y="90" width="18" height="16"/>
    <rect x="24" y="90" width="18" height="16"/>
    <rect x="43" y="90" width="18" height="16"/>
    <rect x="62" y="90" width="20" height="16"/>
  </g>
  <g fill="#38ff5d">
    <rect x="-12" y="92" width="14" height="12"/>
    <rect x="7" y="92" width="14" height="12"/>
    <rect x="26" y="92" width="14" height="12"/>
    <rect x="45" y="92" width="14" height="12"/>
    <rect x="64" y="92" width="16" height="12"/>
  </g>
  <g fill="#071d17">
    <rect x="1" y="94" width="2" height="6"/>
    <rect x="20" y="94" width="2" height="6"/>
    <rect x="39" y="94" width="2" height="6"/>
    <rect x="58" y="94" width="2" height="6"/>
    <rect x="76" y="94" width="4" height="3"/>
    <rect x="76" y="100" width="4" height="3"/>
  </g>
  <g fill="#b7ffb8">
    <rect x="-9" y="94" width="4" height="2"/>
    <rect x="10" y="94" width="4" height="2"/>
    <rect x="29" y="94" width="4" height="2"/>
    <rect x="48" y="94" width="4" height="2"/>
    <rect x="67" y="94" width="4" height="2"/>
  </g>
  <g fill="#ffe66d">
    <rect x="99" y="44" width="3" height="38"/>
    <rect x="98" y="118" width="4" height="36"/>
  </g>
  <g>
    <path d="M42 74h14v14H42z" fill="#31b8ff"/>
    <path d="M34 126h14v14H34z" fill="#36d49f"/>
    <path d="M146 68h14v14h-14z" fill="#ff9f5a"/>
    <path d="M150 126h14v14h-14z" fill="#b889ff"/>
    <path d="M82 130h14v14H82z" fill="#36d49f"/>
  </g>
</svg>
