<svg xmlns="http://www.w3.org/2000/svg" viewBox="0 0 200 200">
  <rect width="200" height="200" fill="#f3efe4"/>
  <g fill="none" stroke-linecap="round" stroke-linejoin="round" stroke-width="1.05">
    <path d="M-4 16 C28 16 53 15 78 16 C100 17 124 15 150 16 C172 17 187 16 204 16" stroke="#b45a45" opacity=".44"/>
    <path d="M-4 26 C22 26 26 33 39 33 C52 33 58 27 75 27 C91 27 98 32 112 32 C129 32 135 26 151 26 C171 26 184 27 204 27" stroke="#1d1b17" opacity=".62"/>
    <path d="M-4 38 C20 38 26 45 40 45 C53 45 61 39 76 39 C93 39 100 44 114 44 C130 44 136 39 152 39 C172 39 185 39 204 39" stroke="#5c5a54" opacity=".52"/>
    <path d="M-4 51 C29 50 57 51 83 50 C111 49 135 51 160 50 C178 50 191 50 204 50" stroke="#c0a04a" opacity=".48"/>
    <path d="M-4 66 C20 66 25 72 38 73 C52 73 59 66 75 66 C92 66 98 72 113 72 C129 72 137 66 153 66 C174 66 188 66 204 66" stroke="#58748a" opacity=".45"/>
    <path d="M-4 80 C18 80 27 88 43 88 C59 88 64 81 79 81 C96 81 104 88 119 88 C136 88 143 81 160 81 C179 81 190 82 204 82" stroke="#1d1b17" opacity=".66"/>
    <path d="M-4 95 C29 94 59 95 86 94 C113 93 139 94 164 94 C181 94 192 95 204 95" stroke="#7d8760" opacity=".48"/>
    <path d="M-4 111 C18 111 25 119 41 119 C56 119 64 112 80 112 C96 112 104 118 119 118 C135 118 143 112 159 112 C178 112 189 113 204 113" stroke="#5c5a54" opacity=".54"/>
    <path d="M-4 127 C28 126 58 127 84 126 C111 125 138 127 164 126 C181 126 192 126 204 126" stroke="#b45a45" opacity=".44"/>
    <path d="M-4 143 C18 143 27 151 43 151 C58 151 66 144 82 144 C98 144 105 150 120 150 C137 150 146 144 161 144 C180 144 190 145 204 145" stroke="#1d1b17" opacity=".66"/>
    <path d="M-4 160 C30 159 60 160 87 159 C114 158 139 159 164 159 C181 159 192 160 204 160" stroke="#c0a04a" opacity=".47"/>
    <path d="M-4 178 C27 177 58 178 88 178 C116 178 142 177 167 178 C184 178 194 178 204 178" stroke="#58748a" opacity=".44"/>
  </g>
  <g stroke="#1d1b17" stroke-width="2.2">
    <rect x="27" y="27" width="14" height="14" fill="#b45a45"/>
    <rect x="61" y="24" width="20" height="20" fill="#f3efe4"/>
    <rect x="103" y="28" width="13" height="13" fill="#5c5a54"/>
    <rect x="144" y="25" width="18" height="18" fill="#7d8760"/>
    <rect x="174" y="33" width="10" height="10" fill="#c0a04a"/>
    <rect x="19" y="70" width="27" height="27" fill="#c0a04a"/>
    <rect x="67" y="67" width="16" height="16" fill="#1d1b17"/>
    <rect x="101" y="75" width="24" height="24" fill="#f3efe4"/>
    <rect x="145" y="68" width="15" height="15" fill="#b45a45"/>
    <rect x="169" y="83" width="22" height="22" fill="#5c5a54"/>
    <rect x="27" y="118" width="18" height="18" fill="#7d8760"/>
    <rect x="57" y="128" width="12" height="12" fill="#f3efe4"/>
    <rect x="96" y="112" width="31" height="31" fill="#1d1b17"/>
    <rect x="140" y="124" width="21" height="21" fill="#c0a04a"/>
    <rect x="176" y="116" width="11" height="11" fill="#b45a45"/>
    <rect x="18" y="158" width="12" height="12" fill="#5c5a54"/>
    <rect x="52" y="153" width="24" height="24" fill="#b45a45"/>
    <rect x="93" y="166" width="13" height="13" fill="#f3efe4"/>
    <rect x="126" y="154" width="18" height="18" fill="#7d8760"/>
    <rect x="168" y="161" width="20" height="20" fill="#1d1b17"/>
  </g>
</svg>
