<svg xmlns="http://www.w3.org/2000/svg" viewBox="0 0 512 512" role="img" aria-label="Happiness Hunter thumbnail">
  <rect width="512" height="512" fill="#090b12"/>
  <rect x="66" y="0" width="380" height="512" fill="#1b2029"/>
  <rect x="45" y="0" width="18" height="512" fill="#34404d"/>
  <rect x="449" y="0" width="18" height="512" fill="#34404d"/>
  <g stroke="#d8e2ef" stroke-width="8" stroke-linecap="square">
    <path d="M142 18v34M142 92v34M142 166v34M142 240v34M142 314v34M142 388v34M142 462v34"/>
    <path d="M218 18v34M218 92v34M218 166v34M218 240v34M218 314v34M218 388v34M218 462v34"/>
    <path d="M294 18v34M294 92v34M294 166v34M294 240v34M294 314v34M294 388v34M294 462v34"/>
    <path d="M370 18v34M370 92v34M370 166v34M370 240v34M370 314v34M370 388v34M370 462v34"/>
  </g>
  <path d="M446 96c42 18 58 58 58 120v48c-27-32-46-45-58-45z" fill="#293747"/>
  <rect x="401" y="104" width="62" height="28" rx="4" fill="#0f7c45"/>
  <text x="432" y="124" text-anchor="middle" font-family="monospace" font-size="18" font-weight="700" fill="#f5ffe8">EXIT</text>
  <g stroke="#ff8e1c" stroke-width="8">
    <path d="M80 68h124"/>
    <path d="M80 68l18 30M116 68l18 30M152 68l18 30M188 68l18 30"/>
  </g>
  <g>
    <rect x="229" y="324" width="54" height="92" fill="#111" opacity=".45"/>
    <rect x="222" y="311" width="58" height="90" fill="#ffd21f" stroke="#070707" stroke-width="8"/>
    <rect x="232" y="327" width="38" height="22" fill="#fff6af"/>
    <rect x="232" y="365" width="38" height="24" fill="#191b22"/>
    <rect x="214" y="324" width="10" height="12" fill="#ffb000"/>
    <rect x="278" y="324" width="10" height="12" fill="#6d4d00"/>
  </g>
  <g stroke="#070707" stroke-width="6">
    <rect x="139" y="182" width="48" height="78" fill="#2f7cff"/>
    <rect x="320" y="218" width="48" height="78" fill="#ef3e36"/>
    <rect x="138" y="398" width="48" height="78" fill="#26b36a"/>
    <rect x="322" y="34" width="48" height="78" fill="#b24dff"/>
  </g>
  <g fill="#ff3b2f">
    <rect x="145" y="192" width="28" height="5"/>
    <rect x="326" y="228" width="20" height="5"/>
    <rect x="145" y="408" width="14" height="5"/>
    <rect x="329" y="44" width="24" height="5"/>
  </g>
  <g fill="#33d6ff">
    <rect x="145" y="249" width="22" height="5"/>
    <rect x="326" y="285" width="35" height="5"/>
    <rect x="145" y="465" width="30" height="5"/>
    <rect x="329" y="101" width="18" height="5"/>
  </g>
  <text x="28" y="44" font-family="monospace" font-size="24" font-weight="700" fill="#f8f4df">+07</text>
  <rect x="0" y="0" width="512" height="512" fill="none" stroke="#f8f4df" stroke-width="6"/>
</svg>
