<svg xmlns="http://www.w3.org/2000/svg" viewBox="0 0 512 512" role="img" aria-labelledby="title desc">
  <title id="title">Mutual Command thumbnail</title>
  <desc id="desc">Two rows of pixel cities trade and intercept missiles on a dark arcade screen.</desc>
  <rect width="512" height="512" fill="#03030a"/>
  <rect y="0" width="512" height="512" fill="#080816" opacity=".65"/>
  <g opacity=".42" fill="#5e7cff">
    <rect x="44" y="58" width="4" height="4"/>
    <rect x="138" y="96" width="3" height="3"/>
    <rect x="232" y="38" width="3" height="3"/>
    <rect x="356" y="78" width="4" height="4"/>
    <rect x="426" y="134" width="3" height="3"/>
    <rect x="84" y="276" width="3" height="3"/>
    <rect x="212" y="238" width="4" height="4"/>
    <rect x="390" y="284" width="3" height="3"/>
  </g>
  <g fill="#ff4a76">
    <rect x="0" y="74" width="512" height="5" opacity=".55"/>
    <rect x="28" y="76" width="44" height="28"/>
    <rect x="34" y="104" width="14" height="18"/>
    <rect x="54" y="104" width="22" height="26"/>
    <rect x="106" y="76" width="36" height="14"/>
    <rect x="116" y="90" width="16" height="18"/>
    <rect x="122" y="108" width="5" height="20"/>
    <rect x="182" y="76" width="54" height="24"/>
    <rect x="188" y="100" width="18" height="26"/>
    <rect x="210" y="100" width="26" height="18"/>
    <rect x="300" y="76" width="36" height="14"/>
    <rect x="310" y="90" width="16" height="18"/>
    <rect x="316" y="108" width="5" height="20"/>
    <rect x="386" y="76" width="58" height="22"/>
    <rect x="392" y="98" width="18" height="28"/>
    <rect x="418" y="98" width="22" height="18"/>
  </g>
  <g fill="#41f6c0">
    <rect x="0" y="433" width="512" height="5" opacity=".55"/>
    <rect x="42" y="390" width="54" height="42"/>
    <rect x="50" y="370" width="17" height="20"/>
    <rect x="70" y="378" width="22" height="12"/>
    <rect x="136" y="408" width="36" height="14"/>
    <rect x="146" y="390" width="16" height="18"/>
    <rect x="152" y="370" width="5" height="20"/>
    <rect x="216" y="392" width="62" height="40"/>
    <rect x="224" y="374" width="20" height="18"/>
    <rect x="250" y="366" width="24" height="26"/>
    <rect x="326" y="408" width="36" height="14"/>
    <rect x="336" y="390" width="16" height="18"/>
    <rect x="342" y="370" width="5" height="20"/>
    <rect x="406" y="386" width="54" height="46"/>
    <rect x="414" y="366" width="18" height="20"/>
    <rect x="438" y="376" width="18" height="10"/>
  </g>
  <g stroke-linecap="square" stroke-width="4" fill="none">
    <path d="M124 128 L244 248" stroke="#ffdd5d"/>
    <path d="M344 128 L268 244" stroke="#ffdd5d"/>
    <path d="M152 368 L246 260" stroke="#8bfff0"/>
    <path d="M342 370 L272 264" stroke="#8bfff0"/>
    <path d="M122 386 L228 238" stroke="#41f6c0" opacity=".72"/>
    <path d="M326 114 L278 246" stroke="#ff4a76" opacity=".72"/>
  </g>
  <g fill="#fff2a2">
    <rect x="240" y="240" width="32" height="32"/>
    <rect x="232" y="248" width="48" height="16"/>
    <rect x="248" y="232" width="16" height="48"/>
    <rect x="116" y="124" width="12" height="12"/>
    <rect x="146" y="360" width="12" height="12"/>
  </g>
  <g fill="#03030a" opacity=".36">
    <rect y="0" width="512" height="3"/>
    <rect y="12" width="512" height="3"/>
    <rect y="24" width="512" height="3"/>
    <rect y="36" width="512" height="3"/>
    <rect y="48" width="512" height="3"/>
    <rect y="60" width="512" height="3"/>
    <rect y="72" width="512" height="3"/>
    <rect y="84" width="512" height="3"/>
    <rect y="96" width="512" height="3"/>
    <rect y="108" width="512" height="3"/>
    <rect y="120" width="512" height="3"/>
    <rect y="132" width="512" height="3"/>
    <rect y="144" width="512" height="3"/>
    <rect y="156" width="512" height="3"/>
    <rect y="168" width="512" height="3"/>
    <rect y="180" width="512" height="3"/>
    <rect y="192" width="512" height="3"/>
    <rect y="204" width="512" height="3"/>
    <rect y="216" width="512" height="3"/>
    <rect y="228" width="512" height="3"/>
    <rect y="240" width="512" height="3"/>
    <rect y="252" width="512" height="3"/>
    <rect y="264" width="512" height="3"/>
    <rect y="276" width="512" height="3"/>
    <rect y="288" width="512" height="3"/>
    <rect y="300" width="512" height="3"/>
    <rect y="312" width="512" height="3"/>
    <rect y="324" width="512" height="3"/>
    <rect y="336" width="512" height="3"/>
    <rect y="348" width="512" height="3"/>
    <rect y="360" width="512" height="3"/>
    <rect y="372" width="512" height="3"/>
    <rect y="384" width="512" height="3"/>
    <rect y="396" width="512" height="3"/>
    <rect y="408" width="512" height="3"/>
    <rect y="420" width="512" height="3"/>
    <rect y="432" width="512" height="3"/>
    <rect y="444" width="512" height="3"/>
    <rect y="456" width="512" height="3"/>
    <rect y="468" width="512" height="3"/>
    <rect y="480" width="512" height="3"/>
    <rect y="492" width="512" height="3"/>
    <rect y="504" width="512" height="3"/>
  </g>
</svg>
