<svg xmlns="http://www.w3.org/2000/svg" viewBox="0 0 200 200" shape-rendering="crispEdges">
  <rect x="0" y="0" width="200" height="200" fill="#000"/>
  <rect x="0" y="12" width="200" height="3" fill="#fff" opacity="0.82"/>
  <rect x="0" y="185" width="200" height="3" fill="#fff" opacity="0.82"/>
  <rect x="99" y="16" width="2" height="5" fill="#fff" opacity="0.38"/>
  <rect x="99" y="24" width="2" height="5" fill="#fff" opacity="0.38"/>
  <rect x="99" y="32" width="2" height="5" fill="#fff" opacity="0.38"/>
  <rect x="99" y="40" width="2" height="5" fill="#fff" opacity="0.38"/>
  <rect x="99" y="48" width="2" height="5" fill="#fff" opacity="0.38"/>
  <rect x="99" y="56" width="2" height="5" fill="#fff" opacity="0.38"/>
  <rect x="99" y="64" width="2" height="5" fill="#fff" opacity="0.38"/>
  <rect x="99" y="72" width="2" height="5" fill="#fff" opacity="0.38"/>
  <rect x="99" y="80" width="2" height="5" fill="#fff" opacity="0.38"/>
  <rect x="99" y="88" width="2" height="5" fill="#fff" opacity="0.38"/>
  <rect x="99" y="96" width="2" height="5" fill="#fff" opacity="0.38"/>
  <rect x="99" y="104" width="2" height="5" fill="#fff" opacity="0.38"/>
  <rect x="99" y="112" width="2" height="5" fill="#fff" opacity="0.38"/>
  <rect x="99" y="120" width="2" height="5" fill="#fff" opacity="0.38"/>
  <rect x="99" y="128" width="2" height="5" fill="#fff" opacity="0.38"/>
  <rect x="99" y="136" width="2" height="5" fill="#fff" opacity="0.38"/>
  <rect x="99" y="144" width="2" height="5" fill="#fff" opacity="0.38"/>
  <rect x="99" y="152" width="2" height="5" fill="#fff" opacity="0.38"/>
  <rect x="99" y="160" width="2" height="5" fill="#fff" opacity="0.38"/>
  <rect x="99" y="168" width="2" height="5" fill="#fff" opacity="0.38"/>
  <rect x="99" y="176" width="2" height="5" fill="#fff" opacity="0.38"/>
  <rect x="84.59" y="123.73" width="10.41" height="2" fill="#fff" opacity="0.5233040354745708"/>
  <rect x="105" y="51.74" width="10.99" height="2" fill="#fff" opacity="0.5456405290237138"/>
  <rect x="105" y="150.22" width="12.62" height="2" fill="#fff" opacity="0.6084955172888395"/>
  <rect x="89.64" y="88.41" width="5.36" height="2" fill="#fff" opacity="0.3291816430007434"/>
  <rect x="92.07" y="104.87" width="2.93" height="2" fill="#fff" opacity="0.23589123616932026"/>
  <rect x="83.46" y="131.51" width="11.54" height="2" fill="#fff" opacity="0.5667848394228205"/>
  <rect x="84" y="125.76" width="11" height="2" fill="#fff" opacity="0.5460713317735767"/>
  <rect x="105" y="120.01" width="2" height="2" fill="#fff" opacity="0.20009404015049592"/>
  <rect x="105" y="121.25" width="12.24" height="2" fill="#fff" opacity="0.5940219849727695"/>
  <rect x="85.66" y="64.37" width="9.34" height="2" fill="#fff" opacity="0.4823051877312546"/>
  <rect x="105" y="126.05" width="5.72" height="2" fill="#fff" opacity="0.34318998412856555"/>
  <rect x="105" y="70.5" width="7.31" height="2" fill="#fff" opacity="0.40440103641739217"/>
  <rect x="87.85" y="84.24" width="7.15" height="2" fill="#fff" opacity="0.3980496947311668"/>
  <rect x="105" y="97.38" width="2.68" height="2" fill="#fff" opacity="0.22629573107962248"/>
  <rect x="87.57" y="62.88" width="7.43" height="2" fill="#fff" opacity="0.4086693737269508"/>
  <rect x="82.74" y="68.17" width="12.26" height="2" fill="#fff" opacity="0.5946969472086006"/>
  <rect x="105" y="100" width="8.66" height="2" fill="#fff" opacity="0.45613373908760096"/>
  <rect x="105" y="94.61" width="10.19" height="2" fill="#fff" opacity="0.5151533415433827"/>
  <rect x="105" y="83.25" width="5.49" height="2" fill="#fff" opacity="0.33407453597317904"/>
  <rect x="105" y="134.61" width="12.95" height="2" fill="#fff" opacity="0.6210912942709303"/>
  <rect x="80.64" y="55.25" width="14.36" height="2" fill="#fff" opacity="0.6753890126700536"/>
  <rect x="105" y="118.31" width="14.5" height="2" fill="#fff" opacity="0.6809194307907819"/>
  <rect x="105" y="48.88" width="3.01" height="2" fill="#fff" opacity="0.23890721312205868"/>
  <rect x="91.42" y="53.52" width="3.58" height="2" fill="#fff" opacity="0.26094233059900235"/>
  <rect x="88.21" y="113.01" width="6.79" height="2" fill="#fff" opacity="0.38422969732748435"/>
  <rect x="105" y="101.22" width="11.03" height="2" fill="#fff" opacity="0.5472566094913116"/>
  <rect x="105" y="85.9" width="5.63" height="2" fill="#fff" opacity="0.3395092659060154"/>
  <rect x="90.03" y="92.24" width="4.97" height="2" fill="#fff" opacity="0.31438160088569744"/>
  <rect x="105" y="80.23" width="2.02" height="2" fill="#fff" opacity="0.2006081753907075"/>
  <rect x="85.24" y="87.94" width="9.76" height="2" fill="#fff" opacity="0.4984889752394439"/>
  <rect x="91.41" y="93.8" width="3.59" height="2" fill="#fff" opacity="0.2611827212212292"/>
  <rect x="105" y="96.27" width="2.82" height="2" fill="#fff" opacity="0.23143075379849623"/>
  <rect x="92.99" y="85.48" width="2.01" height="2" fill="#fff" opacity="0.20021627155579672"/>
  <rect x="105" y="69.34" width="2.89" height="2" fill="#fff" opacity="0.23404128331433244"/>
  <rect x="105" y="123.25" width="2.54" height="2" fill="#fff" opacity="0.220781940894503"/>
  <rect x="88.62" y="55.32" width="6.38" height="2" fill="#fff" opacity="0.368293585723694"/>
  <rect x="105" y="104.43" width="3.3" height="2" fill="#fff" opacity="0.2498404635980012"/>
  <rect x="105" y="67.18" width="2.12" height="2" fill="#fff" opacity="0.20464889986439483"/>
  <rect x="105" y="76.9" width="8.17" height="2" fill="#fff" opacity="0.43731875785018426"/>
  <rect x="92.88" y="74.7" width="2.12" height="2" fill="#fff" opacity="0.20471439630439714"/>
  <rect x="90.7" y="102.72" width="4.3" height="2" fill="#fff" opacity="0.28861909494487265"/>
  <rect x="105" y="101.06" width="12.35" height="2" fill="#fff" opacity="0.5979236514196162"/>
  <rect x="105" y="95.38" width="11.9" height="2" fill="#fff" opacity="0.580623507083756"/>
  <rect x="90.13" y="117.61" width="4.87" height="2" fill="#fff" opacity="0.3103612324187269"/>
  <rect x="105" y="105.52" width="10.12" height="2" fill="#fff" opacity="0.5123611683422129"/>
  <rect x="105" y="160.72" width="6.27" height="2" fill="#fff" opacity="0.36424028465150815"/>
  <rect x="39" y="26" width="2" height="2" fill="#fff" opacity="0.9"/>
  <rect x="41" y="26" width="2" height="2" fill="#fff" opacity="0.9"/>
  <rect x="43" y="26" width="2" height="2" fill="#fff" opacity="0.9"/>
  <rect x="45" y="26" width="2" height="2" fill="#fff" opacity="0.9"/>
  <rect x="47" y="26" width="2" height="2" fill="#fff" opacity="0.9"/>
  <rect x="39" y="28" width="2" height="2" fill="#fff" opacity="0.9"/>
  <rect x="47" y="28" width="2" height="2" fill="#fff" opacity="0.9"/>
  <rect x="39" y="30" width="2" height="2" fill="#fff" opacity="0.9"/>
  <rect x="47" y="30" width="2" height="2" fill="#fff" opacity="0.9"/>
  <rect x="39" y="32" width="2" height="2" fill="#fff" opacity="0.9"/>
  <rect x="47" y="32" width="2" height="2" fill="#fff" opacity="0.9"/>
  <rect x="39" y="34" width="2" height="2" fill="#fff" opacity="0.9"/>
  <rect x="47" y="34" width="2" height="2" fill="#fff" opacity="0.9"/>
  <rect x="39" y="36" width="2" height="2" fill="#fff" opacity="0.9"/>
  <rect x="47" y="36" width="2" height="2" fill="#fff" opacity="0.9"/>
  <rect x="39" y="38" width="2" height="2" fill="#fff" opacity="0.9"/>
  <rect x="41" y="38" width="2" height="2" fill="#fff" opacity="0.9"/>
  <rect x="43" y="38" width="2" height="2" fill="#fff" opacity="0.9"/>
  <rect x="45" y="38" width="2" height="2" fill="#fff" opacity="0.9"/>
  <rect x="47" y="38" width="2" height="2" fill="#fff" opacity="0.9"/>
  <rect x="51" y="26" width="2" height="2" fill="#fff" opacity="0.9"/>
  <rect x="53" y="26" width="2" height="2" fill="#fff" opacity="0.9"/>
  <rect x="55" y="26" width="2" height="2" fill="#fff" opacity="0.9"/>
  <rect x="57" y="26" width="2" height="2" fill="#fff" opacity="0.9"/>
  <rect x="59" y="26" width="2" height="2" fill="#fff" opacity="0.9"/>
  <rect x="51" y="28" width="2" height="2" fill="#fff" opacity="0.9"/>
  <rect x="59" y="28" width="2" height="2" fill="#fff" opacity="0.9"/>
  <rect x="51" y="30" width="2" height="2" fill="#fff" opacity="0.9"/>
  <rect x="59" y="30" width="2" height="2" fill="#fff" opacity="0.9"/>
  <rect x="51" y="32" width="2" height="2" fill="#fff" opacity="0.9"/>
  <rect x="59" y="32" width="2" height="2" fill="#fff" opacity="0.9"/>
  <rect x="51" y="34" width="2" height="2" fill="#fff" opacity="0.9"/>
  <rect x="59" y="34" width="2" height="2" fill="#fff" opacity="0.9"/>
  <rect x="51" y="36" width="2" height="2" fill="#fff" opacity="0.9"/>
  <rect x="59" y="36" width="2" height="2" fill="#fff" opacity="0.9"/>
  <rect x="51" y="38" width="2" height="2" fill="#fff" opacity="0.9"/>
  <rect x="53" y="38" width="2" height="2" fill="#fff" opacity="0.9"/>
  <rect x="55" y="38" width="2" height="2" fill="#fff" opacity="0.9"/>
  <rect x="57" y="38" width="2" height="2" fill="#fff" opacity="0.9"/>
  <rect x="59" y="38" width="2" height="2" fill="#fff" opacity="0.9"/>
  <rect x="63" y="26" width="2" height="2" fill="#fff" opacity="0.9"/>
  <rect x="65" y="26" width="2" height="2" fill="#fff" opacity="0.9"/>
  <rect x="67" y="26" width="2" height="2" fill="#fff" opacity="0.9"/>
  <rect x="69" y="26" width="2" height="2" fill="#fff" opacity="0.9"/>
  <rect x="71" y="26" width="2" height="2" fill="#fff" opacity="0.9"/>
  <rect x="63" y="28" width="2" height="2" fill="#fff" opacity="0.9"/>
  <rect x="71" y="28" width="2" height="2" fill="#fff" opacity="0.9"/>
  <rect x="63" y="30" width="2" height="2" fill="#fff" opacity="0.9"/>
  <rect x="71" y="30" width="2" height="2" fill="#fff" opacity="0.9"/>
  <rect x="63" y="32" width="2" height="2" fill="#fff" opacity="0.9"/>
  <rect x="65" y="32" width="2" height="2" fill="#fff" opacity="0.9"/>
  <rect x="67" y="32" width="2" height="2" fill="#fff" opacity="0.9"/>
  <rect x="69" y="32" width="2" height="2" fill="#fff" opacity="0.9"/>
  <rect x="71" y="32" width="2" height="2" fill="#fff" opacity="0.9"/>
  <rect x="63" y="34" width="2" height="2" fill="#fff" opacity="0.9"/>
  <rect x="71" y="34" width="2" height="2" fill="#fff" opacity="0.9"/>
  <rect x="63" y="36" width="2" height="2" fill="#fff" opacity="0.9"/>
  <rect x="71" y="36" width="2" height="2" fill="#fff" opacity="0.9"/>
  <rect x="63" y="38" width="2" height="2" fill="#fff" opacity="0.9"/>
  <rect x="65" y="38" width="2" height="2" fill="#fff" opacity="0.9"/>
  <rect x="67" y="38" width="2" height="2" fill="#fff" opacity="0.9"/>
  <rect x="69" y="38" width="2" height="2" fill="#fff" opacity="0.9"/>
  <rect x="71" y="38" width="2" height="2" fill="#fff" opacity="0.9"/>
  <rect x="75" y="26" width="2" height="2" fill="#fff" opacity="0.9"/>
  <rect x="77" y="26" width="2" height="2" fill="#fff" opacity="0.9"/>
  <rect x="79" y="26" width="2" height="2" fill="#fff" opacity="0.9"/>
  <rect x="81" y="26" width="2" height="2" fill="#fff" opacity="0.9"/>
  <rect x="83" y="26" width="2" height="2" fill="#fff" opacity="0.9"/>
  <rect x="75" y="28" width="2" height="2" fill="#fff" opacity="0.9"/>
  <rect x="83" y="28" width="2" height="2" fill="#fff" opacity="0.9"/>
  <rect x="75" y="30" width="2" height="2" fill="#fff" opacity="0.9"/>
  <rect x="83" y="30" width="2" height="2" fill="#fff" opacity="0.9"/>
  <rect x="75" y="32" width="2" height="2" fill="#fff" opacity="0.9"/>
  <rect x="77" y="32" width="2" height="2" fill="#fff" opacity="0.9"/>
  <rect x="79" y="32" width="2" height="2" fill="#fff" opacity="0.9"/>
  <rect x="81" y="32" width="2" height="2" fill="#fff" opacity="0.9"/>
  <rect x="83" y="32" width="2" height="2" fill="#fff" opacity="0.9"/>
  <rect x="83" y="34" width="2" height="2" fill="#fff" opacity="0.9"/>
  <rect x="83" y="36" width="2" height="2" fill="#fff" opacity="0.9"/>
  <rect x="75" y="38" width="2" height="2" fill="#fff" opacity="0.9"/>
  <rect x="77" y="38" width="2" height="2" fill="#fff" opacity="0.9"/>
  <rect x="79" y="38" width="2" height="2" fill="#fff" opacity="0.9"/>
  <rect x="81" y="38" width="2" height="2" fill="#fff" opacity="0.9"/>
  <rect x="83" y="38" width="2" height="2" fill="#fff" opacity="0.9"/>
  <rect x="115" y="26" width="2" height="2" fill="#fff" opacity="0.9"/>
  <rect x="117" y="26" width="2" height="2" fill="#fff" opacity="0.9"/>
  <rect x="119" y="26" width="2" height="2" fill="#fff" opacity="0.9"/>
  <rect x="121" y="26" width="2" height="2" fill="#fff" opacity="0.9"/>
  <rect x="123" y="26" width="2" height="2" fill="#fff" opacity="0.9"/>
  <rect x="115" y="28" width="2" height="2" fill="#fff" opacity="0.9"/>
  <rect x="123" y="28" width="2" height="2" fill="#fff" opacity="0.9"/>
  <rect x="115" y="30" width="2" height="2" fill="#fff" opacity="0.9"/>
  <rect x="123" y="30" width="2" height="2" fill="#fff" opacity="0.9"/>
  <rect x="115" y="32" width="2" height="2" fill="#fff" opacity="0.9"/>
  <rect x="123" y="32" width="2" height="2" fill="#fff" opacity="0.9"/>
  <rect x="115" y="34" width="2" height="2" fill="#fff" opacity="0.9"/>
  <rect x="123" y="34" width="2" height="2" fill="#fff" opacity="0.9"/>
  <rect x="115" y="36" width="2" height="2" fill="#fff" opacity="0.9"/>
  <rect x="123" y="36" width="2" height="2" fill="#fff" opacity="0.9"/>
  <rect x="115" y="38" width="2" height="2" fill="#fff" opacity="0.9"/>
  <rect x="117" y="38" width="2" height="2" fill="#fff" opacity="0.9"/>
  <rect x="119" y="38" width="2" height="2" fill="#fff" opacity="0.9"/>
  <rect x="121" y="38" width="2" height="2" fill="#fff" opacity="0.9"/>
  <rect x="123" y="38" width="2" height="2" fill="#fff" opacity="0.9"/>
  <rect x="127" y="26" width="2" height="2" fill="#fff" opacity="0.9"/>
  <rect x="129" y="26" width="2" height="2" fill="#fff" opacity="0.9"/>
  <rect x="131" y="26" width="2" height="2" fill="#fff" opacity="0.9"/>
  <rect x="133" y="26" width="2" height="2" fill="#fff" opacity="0.9"/>
  <rect x="135" y="26" width="2" height="2" fill="#fff" opacity="0.9"/>
  <rect x="127" y="28" width="2" height="2" fill="#fff" opacity="0.9"/>
  <rect x="135" y="28" width="2" height="2" fill="#fff" opacity="0.9"/>
  <rect x="127" y="30" width="2" height="2" fill="#fff" opacity="0.9"/>
  <rect x="135" y="30" width="2" height="2" fill="#fff" opacity="0.9"/>
  <rect x="127" y="32" width="2" height="2" fill="#fff" opacity="0.9"/>
  <rect x="135" y="32" width="2" height="2" fill="#fff" opacity="0.9"/>
  <rect x="127" y="34" width="2" height="2" fill="#fff" opacity="0.9"/>
  <rect x="135" y="34" width="2" height="2" fill="#fff" opacity="0.9"/>
  <rect x="127" y="36" width="2" height="2" fill="#fff" opacity="0.9"/>
  <rect x="135" y="36" width="2" height="2" fill="#fff" opacity="0.9"/>
  <rect x="127" y="38" width="2" height="2" fill="#fff" opacity="0.9"/>
  <rect x="129" y="38" width="2" height="2" fill="#fff" opacity="0.9"/>
  <rect x="131" y="38" width="2" height="2" fill="#fff" opacity="0.9"/>
  <rect x="133" y="38" width="2" height="2" fill="#fff" opacity="0.9"/>
  <rect x="135" y="38" width="2" height="2" fill="#fff" opacity="0.9"/>
  <rect x="139" y="26" width="2" height="2" fill="#fff" opacity="0.9"/>
  <rect x="141" y="26" width="2" height="2" fill="#fff" opacity="0.9"/>
  <rect x="143" y="26" width="2" height="2" fill="#fff" opacity="0.9"/>
  <rect x="145" y="26" width="2" height="2" fill="#fff" opacity="0.9"/>
  <rect x="147" y="26" width="2" height="2" fill="#fff" opacity="0.9"/>
  <rect x="139" y="28" width="2" height="2" fill="#fff" opacity="0.9"/>
  <rect x="139" y="30" width="2" height="2" fill="#fff" opacity="0.9"/>
  <rect x="139" y="32" width="2" height="2" fill="#fff" opacity="0.9"/>
  <rect x="141" y="32" width="2" height="2" fill="#fff" opacity="0.9"/>
  <rect x="143" y="32" width="2" height="2" fill="#fff" opacity="0.9"/>
  <rect x="145" y="32" width="2" height="2" fill="#fff" opacity="0.9"/>
  <rect x="147" y="32" width="2" height="2" fill="#fff" opacity="0.9"/>
  <rect x="147" y="34" width="2" height="2" fill="#fff" opacity="0.9"/>
  <rect x="147" y="36" width="2" height="2" fill="#fff" opacity="0.9"/>
  <rect x="139" y="38" width="2" height="2" fill="#fff" opacity="0.9"/>
  <rect x="141" y="38" width="2" height="2" fill="#fff" opacity="0.9"/>
  <rect x="143" y="38" width="2" height="2" fill="#fff" opacity="0.9"/>
  <rect x="145" y="38" width="2" height="2" fill="#fff" opacity="0.9"/>
  <rect x="147" y="38" width="2" height="2" fill="#fff" opacity="0.9"/>
  <rect x="151" y="26" width="2" height="2" fill="#fff" opacity="0.9"/>
  <rect x="153" y="26" width="2" height="2" fill="#fff" opacity="0.9"/>
  <rect x="155" y="26" width="2" height="2" fill="#fff" opacity="0.9"/>
  <rect x="157" y="26" width="2" height="2" fill="#fff" opacity="0.9"/>
  <rect x="159" y="26" width="2" height="2" fill="#fff" opacity="0.9"/>
  <rect x="151" y="28" width="2" height="2" fill="#fff" opacity="0.9"/>
  <rect x="159" y="28" width="2" height="2" fill="#fff" opacity="0.9"/>
  <rect x="151" y="30" width="2" height="2" fill="#fff" opacity="0.9"/>
  <rect x="159" y="30" width="2" height="2" fill="#fff" opacity="0.9"/>
  <rect x="151" y="32" width="2" height="2" fill="#fff" opacity="0.9"/>
  <rect x="153" y="32" width="2" height="2" fill="#fff" opacity="0.9"/>
  <rect x="155" y="32" width="2" height="2" fill="#fff" opacity="0.9"/>
  <rect x="157" y="32" width="2" height="2" fill="#fff" opacity="0.9"/>
  <rect x="159" y="32" width="2" height="2" fill="#fff" opacity="0.9"/>
  <rect x="151" y="34" width="2" height="2" fill="#fff" opacity="0.9"/>
  <rect x="159" y="34" width="2" height="2" fill="#fff" opacity="0.9"/>
  <rect x="151" y="36" width="2" height="2" fill="#fff" opacity="0.9"/>
  <rect x="159" y="36" width="2" height="2" fill="#fff" opacity="0.9"/>
  <rect x="151" y="38" width="2" height="2" fill="#fff" opacity="0.9"/>
  <rect x="153" y="38" width="2" height="2" fill="#fff" opacity="0.9"/>
  <rect x="155" y="38" width="2" height="2" fill="#fff" opacity="0.9"/>
  <rect x="157" y="38" width="2" height="2" fill="#fff" opacity="0.9"/>
  <rect x="159" y="38" width="2" height="2" fill="#fff" opacity="0.9"/>
  <rect x="181.2" y="43.6" width="7" height="7" fill="#fff" opacity="0.010204081632653067"/>
  <rect x="176" y="47" width="7" height="7" fill="#fff" opacity="0.04081632653061224"/>
  <rect x="170.8" y="50.4" width="7" height="7" fill="#fff" opacity="0.09183673469387757"/>
  <rect x="165.6" y="53.8" width="7" height="7" fill="#fff" opacity="0.16326530612244897"/>
  <rect x="160.4" y="57.2" width="7" height="7" fill="#fff" opacity="0.25510204081632654"/>
  <rect x="155.2" y="60.6" width="7" height="7" fill="#fff" opacity="0.3673469387755103"/>
  <rect x="150" y="64" width="7" height="7" fill="#fff"/>
  <rect x="95" y="92" width="10" height="36" fill="#fff"/>
</svg>
