<svg xmlns="http://www.w3.org/2000/svg" viewBox="0 0 200 200" shape-rendering="crispEdges">
  <rect width="200" height="200" fill="#070a12"/>
  <g fill="#17213c">
    <rect x="18" y="28" width="4" height="4"/>
    <rect x="162" y="42" width="4" height="4"/>
    <rect x="92" y="62" width="3" height="3"/>
    <rect x="34" y="126" width="3" height="3"/>
    <rect x="148" y="142" width="4" height="4"/>
    <rect x="114" y="156" width="3" height="3"/>
  </g>
  <g stroke="#263451" stroke-width="2">
    <path d="M100 0v200"/>
    <path d="M0 100h200"/>
  </g>
  <g fill="#ff6b9d">
    <rect x="82" y="22" width="36" height="8"/>
    <rect x="90" y="30" width="20" height="8"/>
    <rect x="96" y="38" width="8" height="10"/>
  </g>
  <g fill="#7cf7c8">
    <rect x="82" y="170" width="36" height="8"/>
    <rect x="90" y="162" width="20" height="8"/>
    <rect x="96" y="152" width="8" height="10"/>
  </g>
  <g fill="#8fb7ff" transform="rotate(-90 100 100)">
    <rect x="82" y="170" width="36" height="8"/>
    <rect x="90" y="162" width="20" height="8"/>
    <rect x="96" y="152" width="8" height="10"/>
  </g>
  <g fill="#ffb86b" transform="rotate(90 100 100)">
    <rect x="82" y="170" width="36" height="8"/>
    <rect x="90" y="162" width="20" height="8"/>
    <rect x="96" y="152" width="8" height="10"/>
  </g>
  <g fill="#fff1a8">
    <rect x="96" y="84" width="8" height="32"/>
    <rect x="84" y="96" width="32" height="8"/>
  </g>
  <g stroke="#ffd166" stroke-width="4" stroke-linecap="square">
    <path d="M100 100h-34"/>
    <path d="M100 100h34"/>
    <path d="M100 100v-34"/>
    <path d="M100 100v34"/>
  </g>
  <g stroke="#ffffff" stroke-width="2" stroke-linecap="square">
    <path d="M100 100l-24-24"/>
    <path d="M100 100l24 24"/>
    <path d="M100 100l24-24"/>
    <path d="M100 100l-24 24"/>
  </g>
</svg>
