<svg xmlns="http://www.w3.org/2000/svg" viewBox="0 0 200 200" shape-rendering="crispEdges">
  <rect width="200" height="200" fill="#fff"/>
  <rect x="14" y="14" width="172" height="56" fill="#000"/>
  <rect x="22" y="22" width="8" height="40" fill="#fff"/>
  <rect x="30" y="22" width="24" height="8" fill="#fff"/>
  <rect x="54" y="22" width="8" height="40" fill="#fff"/>
  <rect x="30" y="54" width="24" height="8" fill="#fff"/>
  <rect x="78" y="22" width="8" height="40" fill="#fff"/>
  <rect x="86" y="30" width="8" height="8" fill="#fff"/>
  <rect x="94" y="38" width="8" height="8" fill="#fff"/>
  <rect x="102" y="46" width="8" height="8" fill="#fff"/>
  <rect x="110" y="22" width="8" height="40" fill="#fff"/>
  <rect x="14" y="86" width="82" height="42" fill="#000"/>
  <rect x="22" y="94" width="8" height="26" fill="#fff"/>
  <rect x="30" y="94" width="16" height="8" fill="#fff"/>
  <rect x="46" y="94" width="8" height="26" fill="#fff"/>
  <rect x="30" y="112" width="16" height="8" fill="#fff"/>
  <rect x="64" y="94" width="8" height="26" fill="#fff"/>
  <rect x="72" y="102" width="8" height="8" fill="#fff"/>
  <rect x="80" y="110" width="8" height="8" fill="#fff"/>
  <rect x="88" y="94" width="8" height="26" fill="#fff"/>
  <rect x="104" y="86" width="82" height="42" fill="#fff"/>
  <rect x="104" y="86" width="82" height="8" fill="#000"/>
  <rect x="104" y="120" width="82" height="8" fill="#000"/>
  <rect x="104" y="86" width="8" height="42" fill="#000"/>
  <rect x="178" y="86" width="8" height="42" fill="#000"/>
  <rect x="122" y="96" width="8" height="22" fill="#000"/>
  <rect x="130" y="96" width="14" height="6" fill="#000"/>
  <rect x="144" y="96" width="6" height="22" fill="#000"/>
  <rect x="130" y="112" width="14" height="6" fill="#000"/>
  <rect x="154" y="96" width="24" height="6" fill="#000"/>
  <rect x="154" y="104" width="6" height="6" fill="#000"/>
  <rect x="154" y="112" width="18" height="6" fill="#000"/>
  <rect x="14" y="144" width="172" height="42" fill="#fff"/>
  <rect x="14" y="144" width="172" height="8" fill="#000"/>
  <rect x="14" y="178" width="172" height="8" fill="#000"/>
  <rect x="14" y="144" width="8" height="42" fill="#000"/>
  <rect x="178" y="144" width="8" height="42" fill="#000"/>
  <rect x="58" y="154" width="8" height="22" fill="#000"/>
  <rect x="66" y="154" width="14" height="6" fill="#000"/>
  <rect x="80" y="154" width="6" height="22" fill="#000"/>
  <rect x="66" y="170" width="14" height="6" fill="#000"/>
  <rect x="90" y="154" width="24" height="6" fill="#000"/>
  <rect x="90" y="162" width="6" height="6" fill="#000"/>
  <rect x="90" y="170" width="18" height="6" fill="#000"/>
  <rect x="118" y="154" width="24" height="6" fill="#000"/>
  <rect x="118" y="162" width="6" height="6" fill="#000"/>
  <rect x="118" y="170" width="18" height="6" fill="#000"/>
</svg>
